<?xml version="1.0" encoding="utf-8"?>
<!-- Generator: Adobe Illustrator 22.0.1, SVG Export Plug-In . SVG Version: 6.00 Build 0)  -->
<svg version="1.1" id="Layer_1" xmlns="http://www.w3.org/2000/svg" xmlns:xlink="http://www.w3.org/1999/xlink" x="0px" y="0px"
	 viewBox="0 0 275.3 125.6" style="enable-background:new 0 0 275.3 125.6;" xml:space="preserve">
<style type="text/css">
	.st0{fill:#FFFFFF;}
	.st1{opacity:0.41;fill:#F2F2F3;}
</style>
<g>
	<path class="st0" d="M254,55.8c-3.3-16.8-18.1-29.5-35.9-29.5c-7.6,0-14.6,2.3-20.4,6.2C187,13.1,166.4,0,142.7,0
		c-31.5,0-57.5,23.2-62.1,53.4c-2.6-0.6-5.3-0.9-8.1-0.9c-14.8,0-27.6,8.8-33.3,21.5c-3.6-1.7-7.6-2.7-11.9-2.7
		C12.2,71.2,0,83.4,0,98.4c0,15,12.2,27.2,27.2,27.2h45.2h10.6h104.4h3.4h47.9c20.2,0,36.6-16.4,36.6-36.6
		C275.3,74.3,266.6,61.5,254,55.8z"/>
	<path class="st1" d="M104,67.2c-6.2-5.1-15.6-5.8-22.6-1.8c-7,4-11,12.5-9.7,20.4c2.5-6.2,7.3-10.6,12.9-14.1
		C90.3,68.2,97.4,66.7,104,67.2z"/>
	<path class="st1" d="M185.7,75c-0.5-8-6.3-15.4-14-17.8c-7.7-2.4-16.7,0.4-21.6,6.7c6.2-2.4,12.7-1.8,19.1-0.1
		C175.7,65.6,181.5,69.8,185.7,75z"/>
	<path class="st1" d="M85.8,70.7c0.4-24,15.9-46.8,37.3-57.7c16.6-8.4,36.7-9.2,54-2.7C167.2,3.8,155.4,0,142.7,0
		c-31.5,0-57.5,23.2-62.1,53.4c-2.6-0.6-5.3-0.9-8.1-0.9c-6.9,0-13.4,1.9-18.9,5.3c4.5-1.1,9.2-1.1,13.7-0.1
		C74.8,59.4,81.6,64.2,85.8,70.7z"/>
	<path class="st1" d="M275.3,89c0-14.8-8.8-27.5-21.4-33.3c-3.3-16.8-18.1-29.5-35.9-29.5c-7.6,0-14.6,2.3-20.4,6.2
		c-0.2-0.4-21.1,17.7-26.8,30.3c9.3-10.9,20.8-19.4,34.8-22.6c14-3.2,30.5,1.7,37.6,14.2c-13.7-2.8-28.8,2.9-38.4,13.1
		c13.5-12.5,35.3-12.3,50.9-2.6c10.3,6.4,17.2,17.5,19.2,29.4C275.2,92.5,275.3,90.8,275.3,89z"/>
</g>
</svg>
